<?xml version="1.0" encoding="utf-8"?>
<!-- Generator: Adobe Illustrator 27.0.0, SVG Export Plug-In . SVG Version: 6.00 Build 0)  -->
<svg version="1.1" id="Layer_1" xmlns="http://www.w3.org/2000/svg" xmlns:xlink="http://www.w3.org/1999/xlink" x="0px" y="0px"
	 viewBox="0 0 200 200" style="enable-background:new 0 0 200 200;" xml:space="preserve">
<style type="text/css">
	.st0{fill:url(#SVGID_1_);}
	.st1{fill:url(#SVGID_00000090993809898415964110000005551071817142828682_);}
	.st2{opacity:0.16;}
	.st3{fill:url(#SVGID_00000145052690294332177510000000469071475361587856_);}
</style>
<linearGradient id="SVGID_1_" gradientUnits="userSpaceOnUse" x1="144.8913" y1="144.8947" x2="70.539" y2="70.5424">
	<stop  offset="0" style="stop-color:#00B3EE"/>
	<stop  offset="1" style="stop-color:#0049AF"/>
</linearGradient>
<path class="st0" d="M100,40.6c-32.8,0-59.4,26.6-59.4,59.4s26.6,59.4,59.4,59.4s59.4-26.6,59.4-59.4S132.8,40.6,100,40.6z
	 M100,135.3c-19.5,0-35.3-15.8-35.3-35.3c0-19.5,15.8-35.3,35.3-35.3c19.5,0,35.3,15.8,35.3,35.3C135.3,119.5,119.5,135.3,100,135.3
	z"/>
<linearGradient id="SVGID_00000003074314646093596770000018120104710504083384_" gradientUnits="userSpaceOnUse" x1="175.5615" y1="175.565" x2="50.4108" y2="50.4143">
	<stop  offset="0" style="stop-color:#00B3EE"/>
	<stop  offset="1" style="stop-color:#0049AF"/>
</linearGradient>
<path style="fill:url(#SVGID_00000003074314646093596770000018120104710504083384_);" d="M100,0C44.8,0,0,44.8,0,100
	s44.8,100,100,100s100-44.8,100-100S155.2,0,100,0z M100,178.9c-43.6,0-78.9-35.3-78.9-78.9c0-43.6,35.3-78.9,78.9-78.9
	s78.9,35.3,78.9,78.9C178.9,143.6,143.6,178.9,100,178.9z"/>
<g class="st2">
	<path d="M79.6,44.2c1,8.3,4.1,16,8.7,22.5c1.8-0.6,3.7-1.1,5.6-1.5c0,0,0,0,0.1,0c1.9-0.3,3.9-0.5,6-0.5c6,0,11.7,1.5,16.6,4.2
		C106.6,63.3,100,53,100,41.4v-0.9C92.8,40.6,86,41.9,79.6,44.2z"/>
	<path d="M81.5,23.3c5.9-1.4,12.1-2.2,18.5-2.2c2,0,3.9,0.1,5.9,0.2c8.5-12,24.9-17.5,39.6-10.4c-0.7-0.3-1.3-0.7-2-1
		c-0.1-0.1-0.2-0.1-0.4-0.2c-1.2-0.6-2.5-1.2-3.8-1.7c-0.2-0.1-0.4-0.2-0.6-0.3c-1.3-0.6-2.7-1.1-4-1.6c-0.2-0.1-0.5-0.2-0.7-0.3
		c-1.4-0.5-2.8-1-4.2-1.4c-0.1,0-0.1,0-0.2-0.1c-1.4-0.4-2.8-0.8-4.2-1.2c-0.2-0.1-0.4-0.1-0.7-0.2c-1.4-0.4-2.8-0.7-4.3-1
		C120.2,2.1,120,2,119.7,2c-1.5-0.3-3-0.6-4.4-0.8c0,0-0.1,0-0.1,0c-1.5-0.2-2.9-0.4-4.4-0.6c-0.3,0-0.5-0.1-0.8-0.1
		c-1.5-0.1-2.9-0.3-4.4-0.3c-0.3,0-0.6,0-0.9,0C103.1,0,101.6,0,100,0c-0.9,0-1.7,0-2.6,0.1C90.1,6,84.5,14.1,81.5,23.3z"/>
</g>
<linearGradient id="SVGID_00000138549935788360017000000016361123195820927896_" gradientUnits="userSpaceOnUse" x1="185.9179" y1="165.2071" x2="60.7673" y2="40.0565">
	<stop  offset="0" style="stop-color:#00B3EE"/>
	<stop  offset="1" style="stop-color:#0049AF"/>
</linearGradient>
<path style="fill:url(#SVGID_00000138549935788360017000000016361123195820927896_);" d="M146.4,11.4C125.3,0.3,100,16,100,39.9v1.6
	c0,11.6,6.6,22,16.8,27.5c11,6,18.5,17.6,18.5,31c0,19.5-15.8,35.3-35.3,35.3v24.1c32.8,0,59.4-26.6,59.4-59.4
	c0-19.8-9.6-37.2-24.5-48c-3.3-2.4-4.6-6.7-3.4-10.6c1.9-6.3,9.6-9,14.9-5.1c19.7,14.3,32.4,37.6,32.4,63.8
	c0,43.6-35.3,78.9-78.9,78.9V200c55.2,0,100-44.8,100-100C200,61.5,178.3,28.1,146.4,11.4z"/>
</svg>
